<?xml version="1.0" encoding="UTF-8"?>
<svg id="_图层_1" data-name="图层 1" xmlns="http://www.w3.org/2000/svg" viewBox="0 0 733.57 154.03">
  <defs>
    <style>
      .cls-1 {
        letter-spacing: -.05em;
      }

      .cls-2 {
        font-family: GillSans-UltraBoldCondensed, 'Gill Sans Ultra Bold Condensed';
        font-size: 79.37px;
        font-weight: 700;
      }

      .cls-3 {
        letter-spacing: 0em;
      }

      .cls-4 {
        fill-rule: evenodd;
      }
    </style>
  </defs>
  <path class="cls-4" d="M33.56,10.57c.26-1.95,3.07-3.26,6.37-2.97,3.3,.29,5.85,2.07,5.68,3.98s-2.98,3.22-6.28,2.94-5.85-2.07-5.77-3.94"/>
  <path class="cls-4" d="M59.34,2.64c.22-2.31,3.78-3.19,7.71-2.29s6.74,3.27,6.28,5.27c-.46,2-4.02,2.89-7.95,1.98-3.93-.91-6.74-3.27-6.03-4.97"/>
  <path class="cls-4" d="M5.79,32.4c-.16-3.47,4.64-6.93,10.88-7.48,6.24-.55,11.57,2.03,11.9,5.76s-4.47,7.2-10.71,7.74-11.57-2.03-12.06-6.03"/>
  <path class="cls-4" d="M.5,72.75c-1.89-4.23,1.74-9.48,7.85-11.95,6.11-2.47,12.37-1.22,13.99,2.79,1.62,4.01-2.02,9.26-8.13,11.73s-12.37,1.22-13.71-2.56"/>
  <path class="cls-4" d="M27.61,125.66c-2.6-7.01,.72-14.96,7.65-17.76,6.93-2.8,14.83,.61,17.66,7.6,2.83,7-.5,14.94-7.42,17.74-6.93,2.8-14.83-.61-17.88-7.59"/>
  <path class="cls-4" d="M56.03,73.41c1.79-9.22,10.89-14.95,20.39-13.1,9.5,1.85,15.79,10.58,14.06,19.49-1.73,8.92-10.84,14.65-20.33,12.81-9.5-1.85-15.79-10.58-14.12-19.2"/>
  <path class="cls-4" d="M77.85,38.35c2.67-6.95,13.1-9.35,23.13-5.3s15.86,13.03,13.03,20.04c-2.83,7.01-13.26,9.41-23.29,5.36s-15.86-13.03-12.87-20.1"/>
  <path class="cls-4" d="M36.86,37.03c.23-5.52,7.33-9.66,15.69-9.08,8.36,.59,14.82,5.67,14.42,11.37-.4,5.69-7.5,9.84-15.86,9.25-8.36-.59-14.82-5.67-14.25-11.54"/>
  <path class="cls-4" d="M103.63,127.64c6.08-.12,11.25,5.81,11.25,13.14s-5.17,13.26-11.54,13.26-11.54-5.93-11.54-13.26,5.17-13.26,11.83-13.14"/>
  <path class="cls-4" d="M148.58,114.42c4.5-2.53,11.34,.66,14.99,7.25s2.73,14.08-2.06,16.74c-4.79,2.66-11.63-.53-15.28-7.12-3.65-6.59-2.73-14.08,2.35-16.87"/>
  <path class="cls-4" d="M110.24,70.1c5.15-4.77,14.93-3.18,21.95,3.84,7.01,7.02,8.6,16.81,3.54,21.86-5.06,5.06-14.84,3.47-21.85-3.55-7.01-7.02-8.6-16.81-3.64-22.16"/>
  <path class="cls-4" d="M122.14,44.3c2.47-3.77,9.44-3.87,15.7-.11,6.26,3.76,9.44,9.96,7.11,13.85s-9.3,3.99-15.56,.23c-6.26-3.76-9.44-9.96-7.24-13.97"/>
  <path class="cls-4" d="M65.29,16.53c.89-3.39,6.48-5.11,12.55-3.7,6.08,1.4,10.35,5.39,9.54,8.91-.81,3.51-6.39,5.23-12.47,3.82s-10.35-5.39-9.62-9.03"/>
  <path class="cls-4" d="M100.98,21.16c1.15-3.12,6.7-3.44,12.17-.89,5.47,2.55,8.8,7.02,7.42,9.97-1.38,2.95-6.93,3.27-12.4,.72-5.47-2.55-8.8-7.02-7.19-9.8"/>
  <path class="cls-4" d="M153.21,49.6c1.43-2.21,5.74-1.68,9.79,.95s6.29,6.35,5.01,8.32c-1.28,1.97-5.59,1.43-9.63-1.2-4.04-2.63-6.29-6.35-5.17-8.07"/>
  <path class="cls-4" d="M160.48,78.7c1.78-2.06,5.96-.66,9.31,2.81,3.35,3.47,4.6,7.7,2.8,9.44s-5.98,.35-9.33-3.13c-3.35-3.47-4.6-7.7-2.77-9.13"/>
  <path class="cls-4" d="M137.34,27.77c.7-1.53,3.36-1.57,5.64-.08,2.28,1.48,3.33,3.93,2.33,5.46-.99,1.53-3.65,1.57-5.94,.09-2.28-1.48-3.33-3.93-2.04-5.46"/>
  <path class="cls-4" d="M112.88,12.56c.72-1.44,3.81-1.73,6.92-.41,3.11,1.32,5.05,3.75,4.34,5.43-.71,1.68-3.81,1.97-6.92,.65-3.11-1.32-5.05-3.75-4.34-5.68"/>
  <path class="cls-4" d="M89.08,3.96c.19-1.61,2.51-2.49,4.86-1.81,2.35,.68,3.85,2.65,3.35,4.4-.5,1.76-2.82,2.63-5.17,1.96-2.35-.68-3.85-2.65-3.04-4.55"/>
  <text class="cls-2" transform="translate(195.96 106.12)"><tspan x="0" y="0">ENZ</tspan><tspan class="cls-1" x="131.03" y="0">Y</tspan><tspan class="cls-3" x="176.13" y="0">SEARCHER</tspan></text>
</svg>